<?xml version="1.0" standalone="no"?>
<!DOCTYPE svg PUBLIC "-//W3C//DTD SVG 20010904//EN"
 "http://www.w3.org/TR/2001/REC-SVG-20010904/DTD/svg10.dtd">
<svg version="1.0" xmlns="http://www.w3.org/2000/svg"
 width="260.000000pt" height="260.000000pt" viewBox="0 0 260.000000 260.000000"
 preserveAspectRatio="xMidYMid meet">
<metadata>
Created by potrace 1.14, written by Peter Selinger 2001-2017
</metadata>
<g transform="translate(0.000000,260.000000) scale(0.100000,-0.100000)"
fill="#000000" stroke="none">
<path d="M4 2587 c-7 -19 23 -102 53 -151 15 -23 54 -75 88 -116 83 -100 86
-108 69 -148 -7 -18 -16 -61 -20 -96 -7 -66 10 -121 53 -174 41 -51 172 -61
274 -22 57 21 68 19 113 -28 l28 -31 -33 -5 c-19 -3 -140 -8 -269 -10 -129 -2
-243 -7 -253 -11 -19 -8 -24 -60 -6 -71 14 -8 67 -11 399 -19 268 -6 296 -8
304 -16 2 -2 7 -53 10 -114 4 -60 9 -139 11 -175 3 -36 7 -107 10 -157 l4 -93
-47 0 c-222 0 -643 -8 -647 -12 -5 -5 43 -12 170 -24 28 -2 70 -7 95 -9 45 -4
124 -11 235 -20 107 -8 190 -17 194 -21 2 -2 5 -56 7 -121 8 -328 15 -474 24
-528 5 -33 10 -64 10 -70 0 -5 5 -3 9 5 5 8 12 98 15 200 5 161 10 255 21 450
2 25 3 49 4 53 0 5 49 6 109 3 308 -17 309 -17 487 -32 109 -8 101 0 114 -127
24 -232 66 -455 97 -521 17 -34 34 -39 65 -20 15 9 0 197 -26 318 -2 11 -7 46
-10 76 -3 30 -8 76 -10 103 -3 27 -1 47 5 47 10 0 65 -46 112 -92 l27 -28 -16
-52 c-8 -29 -20 -62 -25 -72 -15 -28 -14 -124 1 -179 8 -25 28 -64 46 -84 l33
-38 88 1 c95 1 148 15 245 64 l56 28 48 -39 c26 -21 49 -39 52 -39 3 0 -14 22
-36 49 -23 27 -41 53 -41 58 0 6 7 25 16 42 38 77 6 167 -86 237 -44 33 -55
48 -55 70 0 39 -34 54 -125 54 -61 0 -82 -4 -114 -24 l-40 -24 -50 48 c-28 26
-68 62 -88 80 -21 18 -38 37 -38 42 0 7 60 8 173 4 94 -4 281 -9 415 -12 l242
-5 0 40 c0 22 -4 42 -8 45 -4 2 -48 7 -97 10 -50 4 -112 8 -140 11 -80 7 -247
15 -435 20 -96 3 -177 8 -181 13 -9 8 -16 122 -25 400 l-6 182 28 1 c16 1 43
2 59 4 17 1 100 5 185 9 85 3 220 9 300 12 80 4 168 8 195 9 28 2 64 4 80 5
l30 2 -28 8 c-28 9 -94 15 -252 26 -45 3 -83 11 -87 17 -3 7 -29 44 -57 82
l-52 70 24 20 c13 11 67 54 120 95 113 88 123 104 96 149 -17 28 -21 30 -42
20 -21 -11 -169 -124 -199 -151 -8 -7 -24 -22 -37 -33 l-23 -19 -19 24 c-11
14 -49 69 -85 123 -35 54 -72 101 -81 104 -20 8 -68 -18 -69 -37 -1 -27 65
-144 121 -212 l54 -67 -35 -31 c-20 -17 -53 -42 -75 -57 -43 -28 -47 -50 -8
-45 23 4 87 25 155 53 30 12 34 10 93 -35 34 -26 58 -52 55 -58 -6 -9 -420 -5
-430 4 -8 8 -13 71 -20 221 -3 89 -7 173 -9 187 -1 14 -3 43 -4 64 0 22 -4 36
-8 32 -8 -8 -9 -15 -18 -109 -3 -39 -8 -90 -10 -112 -2 -22 -7 -89 -10 -150
-4 -60 -8 -112 -10 -115 -3 -5 -697 -6 -716 -1 -3 0 -6 45 -8 99 -1 53 -4 113
-6 132 -2 19 -6 78 -10 130 -15 204 -19 220 -55 220 -16 0 -32 -5 -35 -10 -4
-6 -7 -125 -8 -265 0 -140 -3 -255 -5 -255 -3 0 -36 25 -74 57 -65 53 -98 95
-98 125 0 17 -46 104 -76 145 -20 26 -23 40 -18 71 6 38 5 38 -34 50 -53 16
-82 15 -138 -4 l-47 -16 -36 39 c-107 115 -148 163 -178 211 -26 40 -39 52
-59 52 -13 0 -27 -6 -30 -13z m512 -434 c29 -62 29 -67 7 -54 -27 15 -127 110
-122 116 3 2 16 8 29 13 33 13 55 -7 86 -75z m-105 -105 c62 -57 85 -84 77
-90 -7 -4 -46 -8 -85 -8 -81 0 -96 11 -106 77 -5 29 10 103 20 103 3 0 45 -37
94 -82z m1215 -337 c7 -1 10 -17 8 -43 -1 -24 -5 -151 -9 -282 -3 -132 -7
-242 -9 -244 -4 -3 -114 89 -190 160 l-30 27 61 65 c89 95 93 137 22 246 -21
33 -39 62 -39 65 0 8 114 12 186 6z m-221 -10 c11 -1 39 -64 61 -138 l14 -46
-45 -43 c-24 -24 -59 -50 -76 -59 -27 -14 -33 -15 -52 -2 -44 29 -109 97 -105
109 3 7 38 24 79 37 134 42 130 40 127 75 -2 26 -8 32 -33 36 -50 9 -146 -9
-212 -39 l-62 -30 -33 23 c-45 30 -78 59 -78 68 0 4 24 8 53 10 44 3 332 2
362 -1z m-416 -149 l43 -37 -15 -45 c-17 -52 -13 -123 11 -164 37 -63 136 -85
232 -50 l49 18 38 -27 c57 -40 113 -93 113 -107 0 -9 -54 -10 -222 -4 -202 6
-267 9 -306 13 -11 1 -13 45 -10 221 2 140 6 220 13 220 5 0 30 -17 54 -38z
m189 -162 c47 -42 48 -60 1 -60 -38 0 -69 32 -69 70 0 40 16 38 68 -10z m1010
-620 c101 -62 155 -171 108 -218 -13 -13 -18 -13 -38 0 -45 30 -208 190 -208
204 0 35 89 44 138 14z m-94 -137 c106 -89 146 -125 146 -133 0 -17 -144 -53
-214 -53 -59 0 -69 20 -63 123 4 85 18 130 38 130 6 0 48 -30 93 -67z"/>
<path d="M987 2253 c-24 -12 -28 -19 -22 -41 7 -30 34 -71 82 -125 l34 -38
-31 -37 c-16 -20 -30 -44 -30 -53 0 -15 7 -14 53 8 28 14 57 26 63 26 5 0 38
-19 73 -42 60 -41 120 -71 141 -71 17 0 -8 39 -61 95 -26 28 -45 56 -41 62 4
5 42 27 84 48 43 21 89 51 104 66 l26 27 -29 31 -28 32 -60 -29 c-33 -16 -87
-45 -119 -65 -45 -27 -62 -33 -70 -24 -6 7 -33 38 -60 70 -62 73 -73 79 -109
60z"/>
<path d="M540 1587 c-52 -24 -121 -57 -154 -73 l-58 -29 -17 25 c-9 14 -30 41
-48 61 -27 29 -38 35 -63 31 -45 -6 -45 -58 -1 -129 l29 -46 -57 -46 c-31 -25
-65 -55 -77 -66 -24 -24 -59 -75 -51 -75 3 0 54 24 114 54 59 29 117 56 128
60 15 4 47 -11 110 -52 50 -32 99 -68 109 -80 24 -28 36 -28 36 -2 0 31 -25
73 -75 130 -25 28 -45 54 -45 58 0 4 33 22 73 40 96 43 197 103 211 124 13 21
-17 58 -48 58 -12 0 -64 -20 -116 -43z"/>
<path d="M2158 1605 c-2 -2 -21 -5 -44 -7 -117 -14 -263 -159 -264 -264 0 -42
33 -81 78 -94 39 -10 82 -1 167 35 50 22 182 152 187 185 4 29 -14 106 -27
119 -10 10 -91 31 -97 26z m102 -116 c0 -16 -66 -70 -125 -104 -70 -39 -157
-66 -175 -55 -29 18 68 124 137 151 61 24 163 29 163 8z"/>
<path d="M276 935 c-18 -19 -8 -61 29 -116 14 -21 25 -42 25 -46 0 -3 -33 -38
-74 -77 -66 -63 -96 -101 -96 -121 0 -3 19 6 43 20 23 14 81 46 130 71 l87 44
22 -20 c20 -18 208 -120 222 -120 17 0 -1 26 -64 94 -38 42 -70 80 -70 85 0 4
51 30 113 56 61 27 117 52 123 57 17 13 23 67 8 78 -20 18 -158 -21 -261 -74
-51 -25 -93 -34 -93 -18 0 4 -20 28 -44 55 -46 49 -74 58 -100 32z"/>
<path d="M1299 886 c-2 -2 -26 -7 -54 -10 -84 -11 -138 -34 -193 -82 -86 -75
-106 -123 -103 -244 1 -50 47 -116 97 -140 66 -32 174 -7 291 69 96 62 121
119 96 224 -22 96 -51 139 -119 180 -6 3 -13 5 -15 3z m51 -126 c23 -13 43
-81 35 -119 -8 -40 -49 -75 -128 -112 -128 -59 -192 -48 -204 37 -10 78 60
165 155 194 39 12 120 12 142 0z"/>
</g>
</svg>
